<svg width="133" height="133" viewBox="0 0 133 133" fill="none" xmlns="http://www.w3.org/2000/svg">
<circle cx="66.5" cy="66.5" r="66.5" fill="#1D2939"/>
<g clip-path="url(#clip0_69_233)">
<path d="M99.4513 92.4618C96.1339 84.9401 95.5591 78.5745 95.4704 76.0717V55.4773C95.4704 39.7508 82.4635 27 66.415 27C50.3665 27 37.3464 39.7508 37.3464 55.4806V76.3706C37.2249 79.0639 36.5713 85.239 33.3819 92.4618C29.0923 102.168 32.6396 101.012 35.8191 100.213C38.9986 99.4185 46.0998 96.2981 48.3169 100.141C50.534 103.984 52.3832 107.315 57.5597 105.144C62.7362 102.966 65.1734 102.243 65.9124 102.243H66.9175C67.6566 102.243 70.097 102.966 75.2702 105.14C80.4467 107.315 82.2992 103.981 84.513 100.141C86.7334 96.2981 93.8314 99.4185 97.0109 100.213C100.19 101.012 103.738 102.168 99.4513 92.4618ZM57.4415 42.5295C60.5717 42.5295 63.1074 46.4644 63.1074 51.3191C63.1074 56.1737 60.5717 60.1119 57.4415 60.1119C54.3113 60.1119 51.7723 56.177 51.7723 51.3191C51.7723 46.4644 54.3113 42.5295 57.4415 42.5295ZM66.4084 77.6647C59.5108 77.6647 53.7069 71.0134 51.9562 63.61C55.3361 68.1657 60.552 71.089 66.4084 71.089C72.2681 71.089 77.484 68.1657 80.8639 63.61C79.1132 71.0134 73.3093 77.668 66.4117 77.668M75.3786 60.1119C72.2484 60.1119 69.7127 56.177 69.7127 51.3191C69.7127 46.4644 72.2484 42.5295 75.3819 42.5295C78.5121 42.5295 81.0478 46.4644 81.0478 51.3191C81.0478 56.1737 78.5088 60.1119 75.3786 60.1119Z" fill="#D4DBEA"/>
<rect x="48" y="62" width="40" height="19" fill="#D4DBEA"/>
</g>
<defs>
<clipPath id="clip0_69_233">
<rect width="78.83" height="78.83" fill="white" transform="translate(27 27)"/>
</clipPath>
</defs>
</svg>
