<svg width="133" height="133" viewBox="0 0 133 133" fill="none" xmlns="http://www.w3.org/2000/svg">
<circle cx="66.5" cy="66.5" r="66.5" fill="#1D2939"/>
<g clip-path="url(#clip0_69_287)">
<path d="M66.415 105.83C76.8685 105.83 86.8939 101.677 94.2856 94.2856C101.677 86.8939 105.83 76.8685 105.83 66.415C105.83 55.9615 101.677 45.9361 94.2856 38.5444C86.8939 31.1526 76.8685 27 66.415 27C55.9615 27 45.9361 31.1526 38.5444 38.5444C31.1526 45.9361 27 55.9615 27 66.415C27 76.8685 31.1526 86.8939 38.5444 94.2856C45.9361 101.677 55.9615 105.83 66.415 105.83ZM41.9038 75.3604C41.3187 73.251 43.0431 71.3419 45.2294 71.3419H87.6006C89.7869 71.3419 91.5267 73.251 90.9262 75.3604C88.0009 85.8146 78.1317 93.5128 66.415 93.5128C54.6983 93.5128 44.8291 85.8146 41.9038 75.3604ZM60.5028 59.7637L60.472 59.7329C60.4412 59.7021 60.4104 59.6559 60.3642 59.5944C60.2718 59.4712 60.1178 59.2864 59.9331 59.0709C59.5482 58.6398 59.0093 58.0547 58.3626 57.485C57.0077 56.2841 55.4681 55.3295 54.0978 55.3295C52.7275 55.3295 51.1879 56.2841 49.833 57.485C49.1863 58.0547 48.6475 58.6398 48.2625 59.0709C48.0778 59.2864 47.9238 59.4712 47.8314 59.5944C47.7853 59.6559 47.7391 59.7021 47.7237 59.7329L47.6929 59.7637C47.3695 60.1948 46.8153 60.3642 46.3226 60.1948C45.8299 60.0255 45.4758 59.5636 45.4758 59.0247C45.4758 56.2687 46.5073 53.5435 48.0316 51.5112C49.5405 49.5097 51.7114 47.9392 54.0978 47.9392C56.4843 47.9392 58.6552 49.5097 60.164 51.5112C61.6883 53.5435 62.7198 56.2687 62.7198 59.0247C62.7198 59.5482 62.3811 60.0255 61.873 60.1948C61.365 60.3642 60.8107 60.1948 60.5028 59.7637ZM85.1371 59.7637L85.1063 59.7329C85.0755 59.7021 85.0447 59.6559 84.9986 59.5944C84.9062 59.4712 84.7522 59.2864 84.5675 59.0709C84.1825 58.6398 83.6437 58.0547 82.997 57.485C81.6421 56.2841 80.1025 55.3295 78.7322 55.3295C77.3619 55.3295 75.8223 56.2841 74.4674 57.485C73.8207 58.0547 73.2818 58.6398 72.8969 59.0709C72.7122 59.2864 72.5582 59.4712 72.4658 59.5944C72.4196 59.6559 72.3734 59.7021 72.358 59.7329L72.3273 59.7637C72.0039 60.1948 71.4497 60.3642 70.957 60.1948C70.4643 60.0255 70.1102 59.5636 70.1102 59.0247C70.1102 56.2687 71.1417 53.5435 72.666 51.5112C74.1748 49.5097 76.3457 47.9392 78.7322 47.9392C81.1186 47.9392 83.2895 49.5097 84.7984 51.5112C86.3227 53.5435 87.3542 56.2687 87.3542 59.0247C87.3542 59.5482 87.0155 60.0255 86.5074 60.1948C85.9993 60.3642 85.4451 60.1948 85.1371 59.7637Z" fill="#D4DBEA"/>
</g>
<defs>
<clipPath id="clip0_69_287">
<rect width="78.83" height="78.83" fill="white" transform="translate(27 27)"/>
</clipPath>
</defs>
</svg>
