<svg width="133" height="133" viewBox="0 0 133 133" fill="none" xmlns="http://www.w3.org/2000/svg">
<circle cx="66.5" cy="66.5" r="66.5" fill="#1D2939"/>
<path d="M93.4898 42.6248C97.0482 46.1826 99.1108 50.9668 99.2549 55.9966C99.3991 61.0264 97.6137 65.9208 94.265 69.6766L66.4117 97.5693L38.565 69.6766C35.6044 66.3525 33.8559 62.1242 33.6041 57.6799C33.3523 53.2357 34.612 48.837 37.1782 45.1997C39.7444 41.5625 43.4661 38.9008 47.7375 37.6478C52.009 36.3948 56.5787 36.6243 60.7031 38.299L47.8341 51.168L52.4785 55.8157L66.415 41.8792L66.3723 41.8332L66.4183 41.8759C70.1711 38.5164 75.0682 36.7219 80.1031 36.8612C85.1381 37.0005 89.9284 39.063 93.4898 42.6248Z" fill="#D4DBEA"/>
</svg>
