<svg width="134" height="133" viewBox="0 0 134 133" fill="none" xmlns="http://www.w3.org/2000/svg">
<circle cx="67" cy="66.5" r="66.5" fill="#1D2939"/>
<path d="M48.3644 35.0144L87.4509 74.1009L94.4142 67.1376L99.0455 71.7689L90.9326 79.8818L101.378 90.3268C102.659 91.6077 102.659 93.677 101.378 94.958L99.0455 97.2901C98.7416 97.5946 98.3807 97.8361 97.9834 98.001C97.586 98.1658 97.1601 98.2506 96.7299 98.2506C96.2997 98.2506 95.8737 98.1658 95.4764 98.001C95.0791 97.8361 94.7181 97.5946 94.4142 97.2901L83.8379 86.8779L75.8235 94.9909L71.1922 90.3596L78.1556 83.3963L39.069 44.3097V35.0144H48.3644ZM80.192 59.8458L95.7609 44.2769V35.0144H86.4656L70.8966 50.5833L80.192 59.8458ZM63.9333 76.2687L54.6379 66.842L47.379 74.1009L40.4157 67.1376L35.7844 71.7689L43.8974 79.8818L33.4524 90.3596C33.1479 90.6635 32.9063 91.0244 32.7415 91.4218C32.5767 91.8191 32.4918 92.2451 32.4918 92.6752C32.4918 93.1054 32.5767 93.5314 32.7415 93.9287C32.9063 94.3261 33.1479 94.687 33.4524 94.9909L35.7844 97.3229C37.0654 98.6039 39.1347 98.6039 40.4157 97.3229L50.9921 86.8779L59.0064 94.9909L63.6377 90.3596L56.6744 83.3963L63.9333 76.2687Z" fill="#D4DBEA"/>
</svg>
