<svg width="133" height="133" viewBox="0 0 133 133" fill="none" xmlns="http://www.w3.org/2000/svg">
<circle cx="66.5" cy="66.5" r="66.5" fill="#1D2939"/>
<path d="M48.3498 95.9762C46.9812 95.9762 45.8185 95.4967 44.8616 94.5376C43.9025 93.5807 43.4229 92.4179 43.4229 91.0494V85.9583C42.4375 84.8634 41.6438 83.6448 41.0416 82.3025C40.4394 80.9624 40.1383 79.4986 40.1383 77.911V46.7075C40.1383 42.1638 42.2459 38.8376 46.4612 36.7289C50.6764 34.6224 57.3277 33.5692 66.415 33.5692C75.8308 33.5692 82.5642 34.5819 86.6152 36.6074C90.6662 38.6329 92.6917 41.9996 92.6917 46.7075V77.911C92.6917 79.4986 92.3906 80.9624 91.7884 82.3025C91.1862 83.6448 90.3925 84.8634 89.4071 85.9583V91.0494C89.4071 92.4179 88.9275 93.5807 87.9684 94.5376C87.0115 95.4967 85.8488 95.9762 84.4802 95.9762C83.1116 95.9762 81.9489 95.4967 80.992 94.5376C80.0329 93.5807 79.5533 92.4179 79.5533 91.0494V89.4071H53.2767V91.0494C53.2767 92.4179 52.7971 93.5807 51.838 94.5376C50.8811 95.4967 49.7184 95.9762 48.3498 95.9762ZM46.7075 59.8458H86.1225V49.9921H46.7075V59.8458ZM54.919 79.5533C56.2875 79.5533 57.4503 79.0738 58.4072 78.1147C59.3663 77.1578 59.8458 75.995 59.8458 74.6264C59.8458 73.2579 59.3663 72.0951 58.4072 71.1382C57.4503 70.1791 56.2875 69.6996 54.919 69.6996C53.5504 69.6996 52.3876 70.1791 51.4307 71.1382C50.4716 72.0951 49.9921 73.2579 49.9921 74.6264C49.9921 75.995 50.4716 77.1578 51.4307 78.1147C52.3876 79.0738 53.5504 79.5533 54.919 79.5533ZM77.911 79.5533C79.2796 79.5533 80.4424 79.0738 81.3993 78.1147C82.3584 77.1578 82.8379 75.995 82.8379 74.6264C82.8379 73.2579 82.3584 72.0951 81.3993 71.1382C80.4424 70.1791 79.2796 69.6996 77.911 69.6996C76.5425 69.6996 75.3797 70.1791 74.4228 71.1382C73.4637 72.0951 72.9842 73.2579 72.9842 74.6264C72.9842 75.995 73.4637 77.1578 74.4228 78.1147C75.3797 79.0738 76.5425 79.5533 77.911 79.5533Z" fill="#D4DBEA"/>
</svg>
