<svg width="134" height="133" viewBox="0 0 134 133" fill="none" xmlns="http://www.w3.org/2000/svg">
<circle cx="67" cy="66.5" r="66.5" fill="#1D2939"/>
<g clip-path="url(#clip0_69_266)">
<path d="M96.9763 54.7075C99.5896 54.7075 102.096 53.6693 103.944 51.8214C105.792 49.9735 106.83 47.4671 106.83 44.8537C106.83 42.2404 105.792 39.734 103.944 37.8861C102.096 36.0382 99.5896 35 96.9763 35C94.3629 35 91.8565 36.0382 90.0086 37.8861C88.1607 39.734 87.1225 42.2404 87.1225 44.8537C87.1225 47.4671 88.1607 49.9735 90.0086 51.8214C91.8565 53.6693 94.3629 54.7075 96.9763 54.7075ZM34.8853 98.064H99.3042C103.467 98.064 106.83 94.6891 106.83 90.5382C106.83 89.1587 106.448 87.8038 105.734 86.6213L89.4751 59.9793C88.9701 59.154 88.0832 58.649 87.1225 58.649C86.1618 58.649 85.2749 59.154 84.7699 59.9669L78.833 69.6975L63.3257 44.9769C62.5128 43.6713 61.0717 42.883 59.532 42.883C57.9924 42.883 56.5636 43.6713 55.7383 44.9769L29.0593 87.5205C28.3695 88.6167 28 89.8854 28 91.1787C28 94.9847 31.0793 98.064 34.8853 98.064Z" fill="#D4DBEA"/>
</g>
<defs>
<clipPath id="clip0_69_266">
<rect width="78.83" height="63.064" fill="white" transform="translate(28 35)"/>
</clipPath>
</defs>
</svg>
