<svg width="134" height="133" viewBox="0 0 134 133" fill="none" xmlns="http://www.w3.org/2000/svg">
<circle cx="67" cy="66.5" r="66.5" fill="#1D2939"/>
<path d="M66.5411 73.0367C70.1976 73.0367 73.1617 70.0725 73.1617 66.416C73.1617 62.7596 70.1976 59.7954 66.5411 59.7954C62.8846 59.7954 59.9204 62.7596 59.9204 66.416C59.9204 70.0725 62.8846 73.0367 66.5411 73.0367Z" fill="white"/>
<path d="M100.403 73.7927C101.876 72.3436 102.884 70.4884 103.297 68.4639C103.711 66.4394 103.511 64.3377 102.724 62.4272C101.937 60.5168 100.598 58.8843 98.8789 57.7383C97.1596 56.5924 95.1377 55.9851 93.0715 55.9939C92.628 55.9939 92.1168 56.0155 91.5425 56.0601C91.966 55.6967 92.3478 55.3488 92.6711 55.027C94.1245 53.568 95.1141 51.7119 95.5155 49.6921C95.917 47.6723 95.7123 45.5788 94.9272 43.675C94.1421 41.7712 92.8117 40.1419 91.1033 38.9921C89.3948 37.8423 87.3846 37.2232 85.3253 37.2128H85.2868C83.9169 37.2136 82.5607 37.4862 81.2969 38.0148C80.033 38.5434 78.8866 39.3175 77.924 40.2921C77.5991 40.617 77.2511 40.9989 76.8893 41.4207C76.934 40.8434 76.9571 40.3322 76.9571 39.8918C76.9571 37.1277 75.859 34.4768 73.9045 32.5222C71.9499 30.5677 69.299 29.4697 66.5349 29.4697C63.7708 29.4697 61.1199 30.5677 59.1653 32.5222C57.2108 34.4768 56.1127 37.1277 56.1127 39.8918C56.1127 40.3337 56.1358 40.8449 56.1805 41.4207C55.8171 40.9989 55.4691 40.617 55.1458 40.2921C54.1832 39.3175 53.0368 38.5434 51.7729 38.0148C50.5091 37.4862 49.1529 37.2136 47.783 37.2128H47.7568C45.7008 37.2292 43.6952 37.8515 41.991 39.0019C40.2867 40.1524 38.9596 41.7798 38.1756 43.6806C37.3916 45.5814 37.1855 47.6712 37.5831 49.6885C37.9807 51.7059 38.9643 53.5612 40.411 55.0224C40.7343 55.3442 41.1162 55.6921 41.5411 56.057C40.9653 56.0124 40.4541 55.9893 40.0107 55.9893C37.2465 55.9893 34.5956 57.0873 32.6411 59.0419C30.6865 60.9964 29.5885 63.6473 29.5885 66.4114C29.5885 69.1756 30.6865 71.8265 32.6411 73.781C34.5956 75.7355 37.2465 76.8336 40.0107 76.8336C40.451 76.8336 40.9622 76.8105 41.5396 76.7659C41.1177 77.1277 40.7359 77.4757 40.411 77.8005C38.9504 79.2547 37.9547 81.1101 37.5505 83.1312C37.1463 85.1523 37.3516 87.2479 38.1405 89.152C38.9294 91.0561 40.2663 92.6829 41.9815 93.8259C43.6966 94.9689 45.7127 95.5765 47.7738 95.5716H47.8123C49.1737 95.5738 50.5222 95.3077 51.7808 94.7885C53.0393 94.2694 54.1833 93.5074 55.1474 92.5461C55.4691 92.2228 55.8171 91.841 56.1805 91.4175C56.1374 91.9918 56.1143 92.503 56.1143 92.9465C56.1143 95.7106 57.2123 98.3615 59.1669 100.316C61.1214 102.271 63.7723 103.369 66.5364 103.369C69.3006 103.369 71.9515 102.271 73.906 100.316C75.8606 98.3615 76.9586 95.7106 76.9586 92.9465C76.9586 92.5046 76.9355 91.9934 76.8909 91.416C77.2542 91.8394 77.6022 92.2228 77.9255 92.5461C78.8897 93.5088 80.0343 94.272 81.2937 94.7919C82.5531 95.3118 83.9027 95.5784 85.2652 95.5762H85.3037C87.3659 95.5849 89.384 94.9798 91.1013 93.838C92.8186 92.6962 94.1574 91.0694 94.9473 89.1644C95.7372 87.2595 95.9426 85.1627 95.5373 83.1407C95.132 81.1187 94.1342 79.263 92.6711 77.8098C92.3463 77.4849 91.9644 77.1369 91.5425 76.7751C92.1199 76.8197 92.6311 76.8428 93.0715 76.8428C94.4341 76.8417 95.7832 76.5718 97.0414 76.0484C98.2996 75.525 99.4421 74.7584 100.403 73.7927ZM66.5411 79.5034C63.9526 79.5034 61.4223 78.7359 59.2701 77.2978C57.1179 75.8597 55.4405 73.8158 54.4499 71.4244C53.4594 69.033 53.2002 66.4015 53.7052 63.8628C54.2101 61.3241 55.4566 58.9922 57.2869 57.1619C59.1172 55.3316 61.4491 54.0851 63.9878 53.5802C66.5265 53.0752 69.158 53.3344 71.5494 54.3249C73.9408 55.3155 75.9847 56.9929 77.4228 59.1451C78.8609 61.2973 79.6284 63.8276 79.6284 66.4161C79.6243 69.8858 78.2442 73.2122 75.7907 75.6657C73.3372 78.1192 70.0108 79.4993 66.5411 79.5034Z" fill="white"/>
</svg>
