<svg width="200" height="43" viewBox="0 0 200 43" fill="none" xmlns="http://www.w3.org/2000/svg">
<path d="M28.652 35.14L7.448 15.988L9.082 16.9L9.196 34H3.61V4.93H3.838L24.586 24.006L23.37 23.474L23.256 6.032H28.804V35.14H28.652ZM34.2965 20.054C34.2965 18.1287 34.6638 16.3047 35.3985 14.582C36.1332 12.8593 37.1465 11.3393 38.4385 10.022C39.7558 8.67933 41.2758 7.628 42.9985 6.868C44.7212 6.108 46.5705 5.728 48.5465 5.728C50.4972 5.728 52.3338 6.108 54.0565 6.868C55.7792 7.628 57.2992 8.67933 58.6165 10.022C59.9592 11.3393 60.9978 12.8593 61.7325 14.582C62.4925 16.3047 62.8725 18.1287 62.8725 20.054C62.8725 22.03 62.4925 23.8793 61.7325 25.602C60.9978 27.3247 59.9592 28.8447 58.6165 30.162C57.2992 31.454 55.7792 32.4673 54.0565 33.202C52.3338 33.9367 50.4972 34.304 48.5465 34.304C46.5705 34.304 44.7212 33.9367 42.9985 33.202C41.2758 32.4673 39.7558 31.454 38.4385 30.162C37.1465 28.8447 36.1332 27.3247 35.3985 25.602C34.6638 23.8793 34.2965 22.03 34.2965 20.054ZM39.9965 20.054C39.9965 21.2953 40.2118 22.4607 40.6425 23.55C41.0985 24.614 41.7192 25.564 42.5045 26.4C43.3152 27.2107 44.2398 27.844 45.2785 28.3C46.3425 28.756 47.4952 28.984 48.7365 28.984C49.9272 28.984 51.0292 28.756 52.0425 28.3C53.0812 27.844 53.9805 27.2107 54.7405 26.4C55.5005 25.564 56.0958 24.614 56.5265 23.55C56.9572 22.4607 57.1725 21.2953 57.1725 20.054C57.1725 18.7873 56.9445 17.6093 56.4885 16.52C56.0578 15.4307 55.4498 14.4807 54.6645 13.67C53.9045 12.834 53.0052 12.188 51.9665 11.732C50.9278 11.276 49.8005 11.048 48.5845 11.048C47.3685 11.048 46.2412 11.276 45.2025 11.732C44.1638 12.188 43.2518 12.834 42.4665 13.67C41.6812 14.4807 41.0732 15.4307 40.6425 16.52C40.2118 17.6093 39.9965 18.7873 39.9965 20.054ZM93.4079 35.14L72.2039 15.988L73.8379 16.9L73.9519 34H68.3659V4.93H68.5939L89.3419 24.006L88.1259 23.474L88.0119 6.032H93.5599V35.14H93.4079ZM98.8623 6.032H117.71V11.352H110.908V34H105.398V11.352H98.8623V6.032ZM120.353 20.054C120.353 18.1287 120.72 16.3047 121.455 14.582C122.19 12.8593 123.203 11.3393 124.495 10.022C125.812 8.67933 127.332 7.628 129.055 6.868C130.778 6.108 132.627 5.728 134.603 5.728C136.554 5.728 138.39 6.108 140.113 6.868C141.836 7.628 143.356 8.67933 144.673 10.022C146.016 11.3393 147.054 12.8593 147.789 14.582C148.549 16.3047 148.929 18.1287 148.929 20.054C148.929 22.03 148.549 23.8793 147.789 25.602C147.054 27.3247 146.016 28.8447 144.673 30.162C143.356 31.454 141.836 32.4673 140.113 33.202C138.39 33.9367 136.554 34.304 134.603 34.304C132.627 34.304 130.778 33.9367 129.055 33.202C127.332 32.4673 125.812 31.454 124.495 30.162C123.203 28.8447 122.19 27.3247 121.455 25.602C120.72 23.8793 120.353 22.03 120.353 20.054ZM126.053 20.054C126.053 21.2953 126.268 22.4607 126.699 23.55C127.155 24.614 127.776 25.564 128.561 26.4C129.372 27.2107 130.296 27.844 131.335 28.3C132.399 28.756 133.552 28.984 134.793 28.984C135.984 28.984 137.086 28.756 138.099 28.3C139.138 27.844 140.037 27.2107 140.797 26.4C141.557 25.564 142.152 24.614 142.583 23.55C143.014 22.4607 143.229 21.2953 143.229 20.054C143.229 18.7873 143.001 17.6093 142.545 16.52C142.114 15.4307 141.506 14.4807 140.721 13.67C139.961 12.834 139.062 12.188 138.023 11.732C136.984 11.276 135.857 11.048 134.641 11.048C133.425 11.048 132.298 11.276 131.259 11.732C130.22 12.188 129.308 12.834 128.523 13.67C127.738 14.4807 127.13 15.4307 126.699 16.52C126.268 17.6093 126.053 18.7873 126.053 20.054ZM179.465 35.14L158.261 15.988L159.895 16.9L160.009 34H154.423V4.93H154.651L175.399 24.006L174.183 23.474L174.069 6.032H179.617V35.14H179.465Z" fill="#EE3137"/>
<path d="M48 5C56.2845 5 63 11.7155 63 20C63 28.2845 56.2845 35 48 35C39.7155 35 33 28.2845 33 20C33 11.7155 39.7155 5 48 5ZM43.446 14.975L43.3665 15.725L43.3215 16.2245L43.2585 17.1245L43.2225 17.8145L43.1955 18.572L43.1805 19.3955V20.2625L43.1955 21.086L43.2225 21.845L43.2585 22.535L43.3215 23.435L43.428 24.53L43.4475 24.683C43.4807 24.9585 43.5775 25.2225 43.7304 25.4541C43.8832 25.6857 44.0879 25.8786 44.3281 26.0174C44.5684 26.1562 44.8377 26.2373 45.1147 26.254C45.3917 26.2708 45.6687 26.2228 45.924 26.114L46.608 25.811L47.5845 25.3475L48.1695 25.0535L48.8145 24.7175L49.5135 24.338L50.2605 23.915L51 23.48L51.3465 23.27L51.9915 22.865L52.5735 22.49L53.0865 22.1465L54.066 21.4565L54.3315 21.26C54.554 21.0934 54.7346 20.8772 54.8589 20.6286C54.9832 20.38 55.0479 20.1058 55.0478 19.8279C55.0476 19.5499 54.9827 19.2758 54.8581 19.0273C54.7335 18.7789 54.5527 18.5629 54.33 18.3965L53.721 17.9525L53.3085 17.663L52.8285 17.336L51.981 16.784L51.339 16.382L50.634 15.959L49.8855 15.527L49.1685 15.1295L48.498 14.7725L47.883 14.4575L47.073 14.063L46.4145 13.76L46.0695 13.607C46.0221 13.5869 45.9746 13.5669 45.927 13.547C45.6717 13.4373 45.3944 13.3886 45.1171 13.4048C44.8397 13.4209 44.5699 13.5015 44.3291 13.6401C44.0883 13.7787 43.8831 13.9715 43.7298 14.2032C43.5766 14.4349 43.4794 14.6992 43.446 14.975Z" fill="#EE3137"/>
<path d="M135 5C143.285 5 150 11.7155 150 20C150 28.2845 143.285 35 135 35C126.716 35 120 28.2845 120 20C120 11.7155 126.716 5 135 5ZM130.446 14.975L130.367 15.725L130.321 16.2245L130.258 17.1245L130.222 17.8145L130.195 18.572L130.181 19.3955V20.2625L130.195 21.086L130.222 21.845L130.258 22.535L130.321 23.435L130.428 24.53L130.448 24.683C130.481 24.9585 130.578 25.2225 130.73 25.4541C130.883 25.6857 131.088 25.8786 131.328 26.0174C131.568 26.1562 131.838 26.2373 132.115 26.254C132.392 26.2708 132.669 26.2228 132.924 26.114L133.608 25.811L134.584 25.3475L135.17 25.0535L135.815 24.7175L136.514 24.338L137.26 23.915L138 23.48L138.347 23.27L138.992 22.865L139.573 22.49L140.087 22.1465L141.066 21.4565L141.332 21.26C141.554 21.0934 141.735 20.8772 141.859 20.6286C141.983 20.38 142.048 20.1058 142.048 19.8279C142.048 19.5499 141.983 19.2758 141.858 19.0273C141.733 18.7789 141.553 18.5629 141.33 18.3965L140.721 17.9525L140.308 17.663L139.828 17.336L138.981 16.784L138.339 16.382L137.634 15.959L136.885 15.527L136.169 15.1295L135.498 14.7725L134.883 14.4575L134.073 14.063L133.414 13.76L133.069 13.607C133.022 13.5869 132.975 13.5669 132.927 13.547C132.672 13.4373 132.394 13.3886 132.117 13.4048C131.84 13.4209 131.57 13.5015 131.329 13.6401C131.088 13.7787 130.883 13.9715 130.73 14.2032C130.577 14.4349 130.479 14.6992 130.446 14.975Z" fill="#EE3137"/>
<path d="M195 2C195.552 2 196 1.55228 196 1C196 0.447715 195.552 0 195 0V2ZM183 0L182 0V2H183V0ZM195 0L183 0V2L195 2V0Z" fill="white"/>
<path d="M199 8C199.552 8 200 7.55228 200 7C200 6.44772 199.552 6 199 6V8ZM187 6H186V8H187V6ZM199 6L187 6V8L199 8V6Z" fill="white"/>
<path d="M196 14C196.552 14 197 13.5523 197 13C197 12.4477 196.552 12 196 12V14ZM187 12H186V14H187V12ZM196 12L187 12V14L196 14V12Z" fill="white"/>
</svg>
