<svg width="24" height="24" viewBox="0 0 24 24" fill="none" xmlns="http://www.w3.org/2000/svg">
<rect x="6.39999" y="4" width="11.2" height="16" fill="#EE3137"/>
<path d="M12 0C18.6276 0 24 5.3724 24 12C24 18.6276 18.6276 24 12 24C5.3724 24 0 18.6276 0 12C0 5.3724 5.3724 0 12 0ZM8.3568 7.98L8.2932 8.58L8.2572 8.9796L8.2068 9.6996L8.178 10.2516L8.1564 10.8576L8.1444 11.5164V12.21L8.1564 12.8688L8.178 13.476L8.2068 14.028L8.2572 14.748L8.3424 15.624L8.358 15.7464C8.38454 15.9668 8.46201 16.178 8.58428 16.3633C8.70656 16.5486 8.87028 16.7029 9.0625 16.8139C9.25471 16.925 9.47014 16.9898 9.69173 17.0032C9.91332 17.0166 10.135 16.9783 10.3392 16.8912L10.8864 16.6488L11.6676 16.278L12.1356 16.0428L12.6516 15.774L13.2108 15.4704L13.8084 15.132L14.4 14.784L14.6772 14.616L15.1932 14.292L15.6588 13.992L16.0692 13.7172L16.8528 13.1652L17.0652 13.008C17.2432 12.8747 17.3877 12.7018 17.4871 12.5029C17.5866 12.304 17.6383 12.0847 17.6382 11.8623C17.6381 11.6399 17.5861 11.4207 17.4865 11.2219C17.3868 11.0231 17.2421 10.8503 17.064 10.7172L16.5768 10.362L16.2468 10.1304L15.8628 9.8688L15.1848 9.4272L14.6712 9.1056L14.1072 8.7672L13.5084 8.4216L12.9348 8.1036L12.3984 7.818L11.9064 7.566L11.2584 7.2504L10.7316 7.008L10.4556 6.8856C10.4177 6.86948 10.3796 6.85348 10.3416 6.8376C10.1374 6.74984 9.91554 6.71089 9.69365 6.72381C9.47176 6.73674 9.25594 6.8012 9.0633 6.91208C8.87066 7.02295 8.70652 7.1772 8.58388 7.36257C8.46124 7.54794 8.38349 7.75934 8.3568 7.98Z" fill="white"/>
</svg>
